<?xml version="1.0" encoding="UTF-8"?>
<svg id="Layer_1" data-name="Layer 1" xmlns="http://www.w3.org/2000/svg" viewBox="0 0 500 500">
  <defs>
    <style>
      .cls-1 {
        fill: #be2534;
      }

      .cls-2 {
        fill: #ebd7c4;
      }
    </style>
  </defs>
  <rect class="cls-1" x="0" y="0" width="500" height="500" rx="250" ry="250"/>
  <g>
    <path class="cls-2" d="M279.56,147.6c.8.82,2.15.59,2.64-.45,4.73-9.99,16.1-16,26.71-17.6,22.01-3.33,51.14,8.9,53.79,33.16.08.69.57,1.26,1.25,1.43,6.39,1.55,10.29,3.89,17.48,3.46,10.58-.63,23.1-3.82,33.08-7.7,1.02-.4,1.38-1.7.67-2.53-1.53-1.77-5.5-3.33-6.57-3.72-9.17-3.42-19.69-3.88-29.18-6.31-.72-.18-1.21-.84-1.21-1.59v-.53c0-.4.17-.78.46-1.06l.2-.2c.3-.29.69-.44,1.11-.42,12.02.53,31.7,2.39,41.67,8.79,16.94,10.86-14.17,17.96-21.36,19.47-31.99,6.7-68.28,7.67-100.99,9.02-47.76,1.98-96.02,2.55-143.75-2.21-15.34-1.53-61.62-6.65-72.48-15.52-13.24-10.81,12.66-16.37,19.79-17.35,2.71-.37,15.64-2.17,16.37.27,1.31,4.36-12.41,4.51-15.41,5.09-3.61.71-13.61,1.97-13.65,6.34,0,.41.13.82.42,1.11,3.23,3.27,21.43,6.9,25.35,6.92,3.69.03,7.96-1.23,12-.98.85.05,1.62-.54,1.72-1.39,3.75-32.09,42.1-34.27,63.3-15.32.58.52,1.64,2.04,2.65,3.18.8.89,2.27.61,2.69-.5,3.44-9.11,10.09-16.13,19.21-19.87,17.81-7.3,39.05-3.71,53.88,8.44,3.06,2.51,5.4,5.77,8.15,8.58ZM276.68,166.62c5.94-6.19-4.9-18.23-9.67-22.46-11.9-10.55-29.61-14.69-43.64-8.02-1.73.82-.78,3.48,1.08,3.03,5.26-1.28,10.7-1.54,15.9.17.57.19.98.7,1.07,1.3l.04.27c.14.94-.5,1.79-1.41,1.88-6.1.62-12,2.89-16.66,6.86-.36,1.73,1.47,1.1,2.58,1.11,5.16.07,10.27-2.34,15.4-1.28,1.31.27,1.78,1.86.82,2.78s-2.55,2.04-4.12,3.08c-1.47.97-.56,3.25,1.17,2.94l13.52-2.38c3.07-.54,4.02,1.41,2.85,2.53-1.78,1.69-4.59,3.52-6.42,5.02-1.17.96-.48,2.86,1.04,2.87,5.23.05,10.16-1.76,15.35-2.27,1.24-.12,2.17,1.15,1.65,2.27-.93,2-3.03,3.99-.92,4.23,2.71.31,8.52-2.01,10.37-3.94ZM344.55,167.78c-.69,1.18.31,2.63,1.67,2.42,16.82-2.59,9.03-16.34-1.07-24.96-11.57-9.88-26.69-13.51-39.75-8.02-1.85.78-.97,3.53.98,3.08,4.63-1.08,9.35-1.41,12.9,0,1.08.43,3.52,2.36,1.68,3.5-3.53.47-6.73,1.06-10.05,2.41-.41.17-2.27,1.07-3.98,2.11-1.43.87-.76,3.07.91,3l11.45-.45c1.58-.06,2.31,1.94,1.05,2.9-2.45,1.87-6.07,3.87-6.5,4.17-.91.66-2.04.77-1.7,2.33l22.01-4.87c.61-.13,1.24.12,1.58.64h0c.41.62.31,1.45-.25,1.94-1.63,1.43-5.23,3.67-7.52,5.49-1.19.95-.54,2.9.99,2.9,5.09,0,9.85-2.05,14.88-2.3.51-.03,1,.23,1.29.65l.11.16c.33.48.36,1.11.06,1.61l-.75,1.28ZM186.27,168.57c-.45,1.21.63,2.46,1.89,2.15,16.5-4.08,3.01-18.7-6.82-24.5-12.76-7.53-25.07-6.79-37.15,1.6-.18,1.39,1.37.43,2.05.22,6.81-2.18,13.49-5.19,20.59-1.95.52.24.88.76.92,1.34.14,1.78-1.68.93-3.8,1.45-.52.13-5.13,1.46-8.49,2.98-1.62.73-1.01,3.17.77,3.09l8.47-.42c1.09-.05,1.92.97,1.65,2.03h0c-.08.31-.26.58-.5.78l-1.02.84c-1.32,1.08-.29,3.2,1.38,2.83l9.25-2.05c1.61-.36,2.67,1.65,1.45,2.77-.72.66-1.51,1.32-2.24,1.95-1.2,1.03-.36,2.99,1.21,2.84l8.99-.85c1.19-.11,2.09,1.06,1.67,2.18l-.27.73Z"/>
    <path class="cls-2" d="M126.1,243.75c-12.94,12.78-32.35,6.74-25.93-12.35,3.05-9.07,16.81-9.28,18.57-17,2.95-12.96-15.97-15-23.25-7.33-9.37,9.87-7.51,32.07-4.94,44.33,6.31,30.12,28.91,64.09,60.93,70.12,7.02,1.32,18.91-.98,20.78,6.91.05.2.06.42.03.63-1.51,9.69-30.51,5.07-37.23,3.25-50.6-13.67-87.21-82.96-66.85-131.93,10.68-25.69,41.79-27.5,62.26-12.31,18.78,13.94,9.68,41.79-4.38,55.67Z"/>
    <path class="cls-2" d="M415.39,267.85c1.09-.26,2.16.59,2.04,1.71-.88,7.87-6.43,15.7-11.13,21.77-33.12,42.85-98.56,61.08-150.23,66.94-18.41,2.09-39.01.98-56.6,7.05-8.36,2.89-13.08,8.94-22.71,7.69-13.04-1.69-17.93-14.67-10.85-25.34,10.24-15.44,33.54-11,48.95-10.88,65.26.49,132.57-5.85,182.12-52.91,5.93-5.63,10.07-14,18.42-16.02Z"/>
    <path class="cls-2" d="M214.57,257.99c-.84.86-.49,2.31.66,2.66,27.53,8.45,16.89,58.14-6.84,65.86-7.86,2.55-26.25,2.77-27.71-7.97-1.07-7.88,1.57-19.8,1.95-28.08.59-12.64,1.57-26.84.94-39.39-.47-9.35-2.59-18.51-3.61-27.78-.1-.93.61-1.75,1.54-1.8,16.36-.86,15.64,10.48,15.13,23.99-.13,3.38-2.88,13.36,3.72,6.53,5.44-5.63,11.73-19.03,10.11-26.9-2.53-12.27-24.77-14.56-34.64-12.61-6.13,1.22-16.11,8.17-19.92,8.09-5.35-.11-5.92-4.8-3.26-8.8,14.99-22.55,75.77-22.76,79.34,7.75,1.63,13.91-7.86,28.67-17.41,38.46ZM202.92,273.3c-2.33.53-4.55,2.69-5.41,4.88-2.12,5.43-2.56,20.64,3.46,23.81,15.78,8.3,23.45-33.59,1.95-28.69Z"/>
    <path class="cls-2" d="M260.07,199.39c6.28-.85,22.28-2.25,23.57,5.9,1.16,7.31.3,21.91.1,29.93-.45,18.02-2.2,36.27-2.89,54.21-.29,7.51,1.48,27.74-1.39,33.24-1.56,2.99-9.12,4.1-11.53,1.78-.17-.16-.28-.37-.35-.59-2.02-6.55,1-29.59-5.43-32.5-11.56-5.24-9.38,20.73-10.38,27.03-1.22,7.69-2.04,10.62-10.55,9.82-4.16-.39-6.21-.62-6.29-5.04-.18-10.79,3.78-26.87,4.76-38.39,1.4-16.45,1.79-33.16,2.85-49.57,1-15.39-3.03-33.06,17.52-35.84ZM259.62,220.01c-3.67,3.67-1.83,21.39-2.1,27.39-.35,8.01-1.13,16.32-1.99,24.3.35,7.23,11.48,4.3,12.17-1.71.02-.15,0-.3-.02-.45-1.37-8.37,3.52-46.61.62-50.8-1.41-2.03-7.2-.23-8.69,1.25Z"/>
    <path class="cls-2" d="M311.91,235.86c8.33-11.44,10.15-27.45,14.83-40.6.06-.16.13-.32.24-.45,1.93-2.36,10.12-3,12.75-1.82.46.21.76.65.87,1.15.5,2.29-.66,4.69-1.21,6.88-5.41,21.38-13.22,41.65-24.09,60.78-.19.33-.26.73-.19,1.1,3.45,18.28,13.13,32.01,28.27,42.09.99.66.93,2.12-.09,2.73-4.94,2.93-14.37,7.51-17.43,6.12-1.99-.9-5.53-6.78-6.95-8.95-.02-.03-.03-.05-.05-.08l-9.52-16.76c-.83-1.46-3.06-.85-3.03.83l.61,28.16c0,.23-.02.46-.12.66-1.45,2.84-10.28,4.97-14,3.85-.54-.16-.94-.64-1.05-1.2-1.14-6.04-.73-38.6-.6-44.02.05-2.21.95-4.26,1.01-6.48.72-23.65,1.43-47.34,2.66-71.03.03-.63.43-1.18,1.01-1.42,5.24-2.24,13.14-2.09,13.14,5.02v32.49c0,1.58,2.01,2.21,2.95.93Z"/>
    <path class="cls-2" d="M348.9,248.14c10.55,10.49-7.65,14.6-6.1,23.33,1.93,10.84,21.04,5.24,23.77-3.95,3.73-12.59-9.36-23.52-15.04-33.72-5.75-10.34-9.38-19.15-4.65-30.9,4.04-10.04,17-17.1,26.21-9.38,7.22,6.05,2.52,27.21-6.05,20.08-1.44-1.2-6.18-8.59-8.28-1.63-3.13,10.39,16.97,30.25,21.12,41.21,6.69,17.66-3.23,37.34-21.06,43.1-19.14,6.18-32.29-16.53-29.97-33.71,1.38-10.22,8.75-25.65,20.03-14.44Z"/>
    <path class="cls-2" d="M409.84,176.93c36.74-5.37,29.55,39.66,19.75,60.93-7.43,16.12-31.54,41.22-43.09,14.34-10-23.27-8.7-70.6,23.34-75.28ZM409.81,193.75c-12.32,2.15-16.25,23.59-15.54,33.84.38,5.5,3.01,16.76,9.79,17.43,16.94,1.68,31.84-55.81,5.75-51.27Z"/>
    <path class="cls-2" d="M150.53,231.2c16.19-2.75,24.39,8.81,25.55,23.61,1.31,16.68.09,57.68-23.9,57.67-35.23-.01-28.05-76.79-1.65-81.28ZM154.26,245.21c-11.21,2.5-13.64,39.7-5.43,46.22,11.15,8.86,14.63-16.14,15.09-22.5.52-7.27,2-26.31-9.66-23.72Z"/>
  </g>
</svg>